<svg width="47" height="46" viewBox="0 0 47 46" fill="none" xmlns="http://www.w3.org/2000/svg">
<path fill-rule="evenodd" clip-rule="evenodd" d="M33.4785 11.4447C31.8664 9.80078 30.0286 9.26612 28.2962 9.39294C26.6452 9.5138 25.1956 10.2235 24.1777 10.8692C23.6846 11.182 22.9436 11.182 22.4505 10.8692C21.4326 10.2235 19.983 9.51382 18.332 9.39295C16.5997 9.26614 14.7618 9.8008 13.1498 11.4447C11.2547 13.3773 10.6715 15.7671 10.9047 18.1246C11.133 20.4322 12.1366 22.7289 13.431 24.7219C14.7321 26.7252 16.3939 28.5254 18.0729 29.8405C19.6814 31.1003 21.5734 32.125 23.3141 32.125C25.0549 32.125 26.9469 31.1003 28.5553 29.8405C30.2344 28.5254 31.8962 26.7252 33.1973 24.7219C34.4917 22.7289 35.4953 20.4322 35.7236 18.1246C35.9568 15.7671 35.3735 13.3773 33.4785 11.4447ZM25.9186 13.6136C26.7139 13.1092 27.635 12.7 28.5335 12.6343C29.3507 12.5744 30.2413 12.7854 31.158 13.7202C32.2643 14.8484 32.6453 16.2286 32.4894 17.8046C32.3285 19.4304 31.5895 21.2305 30.4717 22.9517C29.3605 24.6626 27.9402 26.194 26.5513 27.2819C25.0917 28.4252 23.9297 28.875 23.3141 28.875C22.6985 28.875 21.5366 28.4252 20.077 27.2819C18.688 26.194 17.2678 24.6626 16.1566 22.9517C15.0387 21.2305 14.2998 19.4304 14.1389 17.8046C13.983 16.2286 14.364 14.8484 15.4703 13.7202C16.387 12.7854 17.2775 12.5745 18.0947 12.6343C18.9933 12.7001 19.9143 13.1092 20.7096 13.6136C22.2654 14.6006 24.3628 14.6006 25.9186 13.6136Z" fill="#5C5C5C"/>
<path fill-rule="evenodd" clip-rule="evenodd" d="M34.8951 0.861336C33.0223 0.708326 30.6922 0.708334 27.7202 0.708344H18.9081C15.936 0.708334 13.6059 0.708326 11.7332 0.861336C9.82618 1.01714 8.25078 1.33966 6.82483 2.06622C4.48064 3.26064 2.57476 5.16653 1.38034 7.51071C0.653781 8.93666 0.331259 10.5121 0.175454 12.419C0.0224433 14.2918 0.0224512 16.6219 0.0224611 19.594V28.8281C0.0224611 34.2388 4.40869 38.625 9.81938 38.625H11.1232C11.6616 38.625 12.0298 39.1688 11.8298 39.6687C10.342 43.3881 14.6256 46.7507 17.8853 44.4223L23.5419 40.3819L23.6484 40.3061C25.1843 39.2238 27.0146 38.6372 28.8935 38.6252L29.0242 38.625L30.5315 38.625C33.8868 38.6255 35.9336 38.6258 37.6529 38.1217C41.7245 36.9278 44.9086 33.7437 46.1025 29.6721C46.6066 27.9528 46.6063 25.9062 46.6058 22.5508L46.6058 19.5939C46.6058 16.6219 46.6058 14.2918 46.4528 12.419C46.297 10.5121 45.9745 8.93666 45.2479 7.51071C44.0535 5.16653 42.1476 3.26064 39.8034 2.06622C38.3775 1.33966 36.8021 1.01714 34.8951 0.861336ZM8.3003 4.96199C9.19173 4.50779 10.2918 4.23993 11.9978 4.10054C13.7228 3.95961 15.9204 3.95834 18.9808 3.95834H27.6475C30.7079 3.95834 32.9055 3.95961 34.6304 4.10054C36.3364 4.23993 37.4365 4.50779 38.328 4.96199C40.0606 5.84483 41.4693 7.25352 42.3521 8.98618C42.8064 9.87761 43.0742 10.9777 43.2136 12.6837C43.3545 14.4087 43.3558 16.6062 43.3558 19.6667V22.2325C43.3558 26.0066 43.3392 27.5453 42.9838 28.7576C42.1013 31.7671 39.7479 34.1206 36.7384 35.003C35.5261 35.3585 33.9874 35.375 30.2133 35.375H29.0242L28.8727 35.3753C26.3306 35.3915 23.8544 36.1851 21.7763 37.6494L21.6529 37.7372L15.9963 41.7777C15.3778 42.2195 14.5651 41.5814 14.8474 40.8757C15.9012 38.241 13.9609 35.375 11.1232 35.375H9.81938C6.20362 35.375 3.27246 32.4439 3.27246 28.8281V19.6667C3.27246 16.6062 3.27373 14.4087 3.41466 12.6837C3.55404 10.9777 3.8219 9.87761 4.27611 8.98618C5.15894 7.25352 6.56764 5.84483 8.3003 4.96199Z" fill="#5C5C5C"/>
</svg>
