<?xml version="1.0" standalone="no"?>
<!DOCTYPE svg PUBLIC "-//W3C//DTD SVG 20010904//EN"
 "http://www.w3.org/TR/2001/REC-SVG-20010904/DTD/svg10.dtd">
<svg version="1.0" xmlns="http://www.w3.org/2000/svg"
 width="55.000000pt" height="55.000000pt" viewBox="0 0 512.000000 512.000000"
 preserveAspectRatio="xMidYMid meet">

<g transform="translate(0.000000,512.000000) scale(0.100000,-0.100000)"
fill="#374bff" stroke="none">
<path d="M440 4124 c0 -5 2006 -3170 2019 -3186 6 -7 381 613 381 629 0 4
-157 262 -349 573 l-349 565 206 5 207 5 157 255 c86 140 157 258 157 263 1 4
-248 7 -551 7 l-553 0 -92 153 -92 152 462 3 462 3 180 281 c99 154 182 285
183 289 2 5 -543 9 -1212 9 -669 0 -1216 -3 -1216 -6z"/>
<path d="M2900 3849 c-96 -155 -176 -286 -178 -290 -2 -5 63 -10 145 -10 81
-1 210 -4 285 -8 l138 -6 -361 -601 -360 -602 197 -311 c108 -171 199 -310
201 -308 2 2 257 415 567 918 l564 914 121 5 121 5 171 275 c94 151 173 281
176 288 4 9 -161 12 -803 12 l-809 0 -175 -281z"/>
</g>
</svg>
