<svg width="47" height="47" viewBox="0 0 47 47" fill="none" xmlns="http://www.w3.org/2000/svg">
<path d="M23.9492 18.3922C25.4539 19.897 25.4539 22.3367 23.9492 23.8414C22.4444 25.3462 20.0047 25.3462 18.5 23.8414C16.9952 22.3367 16.9952 19.897 18.5 18.3922C20.0047 16.8874 22.4444 16.8874 23.9492 18.3922Z" fill="#5C5C5C"/>
<path fill-rule="evenodd" clip-rule="evenodd" d="M24.1054 0.574846C22.4318 0.262101 20.6367 0.400077 17.7134 0.624776L17.091 0.672515C13.2349 0.96778 10.8742 1.14853 8.90489 1.99101C5.84521 3.29993 3.4076 5.73755 2.09867 8.79722C1.2562 10.7666 1.07545 13.1272 0.780182 16.9834L0.732442 17.6057C0.507743 20.529 0.369767 22.3241 0.682511 23.9977C1.16788 26.5951 2.43692 28.9816 4.31898 30.8362C5.53168 32.0313 7.09708 32.9206 9.6464 34.3688L14.3072 37.0173C16.5481 38.291 17.9204 39.071 19.3126 39.4913C20.8317 39.95 22.4037 40.1201 23.9519 40.0121L26.6844 42.7446C31.149 47.2093 38.3876 47.2093 42.8522 42.7446C47.3168 38.28 47.3168 31.0414 42.8522 26.5768L40.1198 23.8444C40.2278 22.2962 40.0577 20.7241 39.599 19.2049C39.1787 17.8128 38.3986 16.4404 37.1249 14.1996L34.4764 9.53871C33.0282 6.9894 32.1389 5.42401 30.9439 4.21132C29.0892 2.32926 26.7028 1.06021 24.1054 0.574846ZM17.7079 4.01014C20.9789 3.75914 22.3024 3.67134 23.4854 3.89242C25.4052 4.25117 27.1692 5.18916 28.54 6.58024C29.3848 7.43749 30.0519 8.58384 31.6727 11.4361L34.0737 15.6612C35.5008 18.1728 36.0712 19.1971 36.368 20.1804C36.7697 21.5108 36.872 22.8957 36.6877 24.2417C36.5049 25.5765 36.0403 26.8725 35.306 28.0388C34.7588 28.908 33.9371 29.7442 31.8945 31.7868C29.8518 33.8294 29.0156 34.6512 28.1464 35.1984C26.9801 35.9326 25.684 36.3973 24.3492 36.5801C23.0033 36.7644 21.6184 36.662 20.288 36.2603C19.3048 35.9635 18.2804 35.3932 15.7689 33.966L11.5438 31.5651C8.69151 29.9443 7.54516 29.2771 6.68791 28.4323C5.29682 27.0615 4.35883 25.2976 4.00008 23.3778C3.77901 22.1947 3.86681 20.8712 4.1178 17.6003C4.45011 13.2696 4.60702 11.5147 5.20166 10.1247C5.45922 9.5226 5.77591 8.95313 6.14466 8.4233L17.3067 19.5854C17.9657 20.2444 19.0342 20.2444 19.6932 19.5854C20.3522 18.9264 20.3522 17.8579 19.6932 17.1989L8.53118 6.03685C9.06094 5.66816 9.63035 5.35152 10.2323 5.09399C11.6223 4.49935 13.3773 4.34245 17.7079 4.01014ZM29.0708 40.3581L27.8383 39.1256C28.566 38.8358 29.2712 38.4784 29.9445 38.0545C31.1752 37.2798 32.2912 36.1634 34.1137 34.3406L34.4482 34.006C36.2711 32.1836 37.3874 31.0675 38.1622 29.8368C38.586 29.1636 38.9434 28.4584 39.2332 27.7308L40.4657 28.9633C43.6123 32.1099 43.6123 37.2115 40.4657 40.3581C37.3191 43.5048 32.2174 43.5048 29.0708 40.3581Z" fill="#5C5C5C"/>
</svg>
