<svg width="48" height="48" viewBox="0 0 48 48" fill="none" xmlns="http://www.w3.org/2000/svg">
<path d="M30.2539 5.64233C31.2204 5.64233 32.0039 4.85883 32.0039 3.89233C32.0039 2.92584 31.2204 2.14233 30.2539 2.14233L23.1483 2.14233C18.8631 2.14231 15.504 2.1423 12.839 2.43103C10.1194 2.72568 7.91588 3.33776 6.03446 4.70469C4.89545 5.53222 3.8938 6.53388 3.06626 7.67288C1.69933 9.5543 1.08725 11.7579 0.792605 14.4774C0.503872 17.1424 0.503888 20.5015 0.503907 24.7868V24.9979C0.503888 29.2832 0.503872 32.6422 0.792605 35.3072C1.08725 38.0268 1.69933 40.2304 3.06626 42.1118C3.8938 43.2508 4.89545 44.2524 6.03445 45.08C7.91587 46.4469 10.1194 47.059 12.839 47.3536C15.504 47.6424 18.863 47.6423 23.1481 47.6423H23.3595C27.6447 47.6423 31.0039 47.6424 33.6688 47.3536C36.3884 47.059 38.5919 46.4469 40.4734 45.08C41.6124 44.2524 42.614 43.2508 43.4416 42.1118C44.8085 40.2304 45.4206 38.0268 45.7152 35.3072C46.0039 32.6423 46.0039 29.2833 46.0039 24.9981V17.8923C46.0039 16.9258 45.2204 16.1423 44.2539 16.1423C43.2874 16.1423 42.5039 16.9258 42.5039 17.8923V24.8923C42.5039 29.306 42.5015 32.4757 42.2356 34.9302C41.9732 37.352 41.4712 38.8692 40.61 40.0545C39.9983 40.8964 39.258 41.6368 38.4161 42.2484C37.2308 43.1096 35.7136 43.6116 33.2918 43.874C30.8373 44.1399 27.6676 44.1423 23.2539 44.1423C18.8402 44.1423 15.6706 44.1399 13.216 43.874C10.7942 43.6116 9.27705 43.1096 8.0917 42.2484C7.24983 41.6368 6.50948 40.8964 5.89782 40.0545C5.03662 38.8692 4.53463 37.352 4.27224 34.9302C4.00631 32.4757 4.00391 29.306 4.00391 24.8923C4.00391 20.4787 4.00631 17.309 4.27224 14.8544C4.53463 12.4326 5.03662 10.9155 5.89782 9.73013C6.50948 8.88826 7.24983 8.1479 8.0917 7.53625C9.27705 6.67505 10.7942 6.17305 13.216 5.91067C15.6706 5.64474 18.8402 5.64233 23.2539 5.64233H30.2539Z" fill="#5C5C5C"/>
<path d="M10.0161 30.7883C9.59044 31.656 9.94882 32.7045 10.8165 33.1302C11.6843 33.5558 12.7327 33.1974 13.1584 32.3297L16.5658 25.3833C17.622 23.2302 20.7262 23.3353 21.6342 25.5549C23.6856 30.5694 30.6983 30.8069 33.0843 25.9428L36.4917 18.9964C36.9174 18.1286 36.559 17.0802 35.6913 16.6545C34.8235 16.2289 33.7751 16.5872 33.3494 17.455L29.942 24.4014C28.8858 26.5545 25.7816 26.4494 24.8736 24.2297C22.8222 19.2153 15.8095 18.9777 13.4235 23.8419L10.0161 30.7883Z" fill="#5C5C5C"/>
<path fill-rule="evenodd" clip-rule="evenodd" d="M36.0872 6.22567C36.0872 9.44733 38.6989 12.059 41.9206 12.059C45.1422 12.059 47.7539 9.44733 47.7539 6.22567C47.7539 3.00401 45.1422 0.392334 41.9206 0.392334C38.6989 0.392334 36.0872 3.00401 36.0872 6.22567ZM39.5872 6.22567C39.5872 7.51433 40.6319 8.559 41.9206 8.559C43.2092 8.559 44.2539 7.51433 44.2539 6.22567C44.2539 4.937 43.2092 3.89233 41.9206 3.89233C40.6319 3.89233 39.5872 4.937 39.5872 6.22567Z" fill="#5C5C5C"/>
</svg>
