<svg width="52" height="49" viewBox="0 0 52 49" fill="none" xmlns="http://www.w3.org/2000/svg">
<path d="M39.2264 32.6589C40.142 32.6589 40.8842 31.9167 40.8842 31.0011C40.8842 30.0855 40.142 29.3432 39.2264 29.3432L25.9638 29.3432C25.0482 29.3432 24.306 30.0855 24.306 31.0011C24.306 31.9167 25.0482 32.6589 25.9638 32.6589L39.2264 32.6589Z" fill="#5C5C5C"/>
<path fill-rule="evenodd" clip-rule="evenodd" d="M39.9891 0.763718C38.0785 0.607617 35.7014 0.607626 32.6693 0.607636H19.2583C16.2262 0.607626 13.849 0.607617 11.9385 0.763718C9.99296 0.922672 8.38573 1.25171 6.93098 1.99294C4.53945 3.21149 2.59507 5.15587 1.37652 7.54741C0.635283 9.00216 0.306247 10.6094 0.147294 12.5549C-0.00880708 14.4655 -0.00879904 16.8426 -0.0087889 19.8747V20.0231C-0.00879904 23.0552 -0.00880708 25.4324 0.147294 27.3429C0.306247 29.2884 0.635283 30.8957 1.37652 32.3504C2.59507 34.742 4.53945 36.6863 6.93098 37.9049C8.38573 38.6461 9.99296 38.9752 11.9385 39.1341C13.849 39.2902 16.2261 39.2902 19.2582 39.2902H24.306V43.344C22.9258 43.4405 21.5521 43.6577 20.2006 43.9956L16.72 44.8658C15.8317 45.0878 15.2917 45.9879 15.5137 46.8762C15.7358 47.7644 16.6359 48.3045 17.5241 48.0824L21.0048 47.2123C22.6327 46.8053 24.2982 46.6018 25.9638 46.6018C27.6293 46.6018 29.2948 46.8053 30.9228 47.2123L34.4034 48.0824C35.2917 48.3045 36.1918 47.7644 36.4138 46.8762C36.6359 45.9879 36.0958 45.0878 35.2076 44.8658L31.7269 43.9956C30.3755 43.6577 29.0017 43.4405 27.6216 43.344V39.2902H32.6693C35.7013 39.2902 38.0786 39.2902 39.9891 39.1341C41.9346 38.9752 43.5418 38.6461 44.9966 37.9049C47.3881 36.6863 49.3325 34.742 50.551 32.3504C51.2923 30.8957 51.6213 29.2884 51.7803 27.3429C51.9364 25.4324 51.9364 23.0553 51.9364 20.0232V19.8747C51.9364 16.8427 51.9364 14.4654 51.7803 12.5549C51.6213 10.6094 51.2923 9.00216 50.551 7.54741C49.3325 5.15587 47.3881 3.21149 44.9966 1.99294C43.5418 1.25171 41.9346 0.922671 39.9891 0.763718ZM39.7191 35.8295C37.9593 35.9733 35.7173 35.9745 32.5951 35.9745H19.3325C16.2102 35.9745 13.9683 35.9733 12.2085 35.8295C10.468 35.6873 9.34569 35.414 8.43625 34.9506C6.6686 34.05 5.23145 32.6128 4.33078 30.8451C3.8674 29.9357 3.59413 28.8134 3.45193 27.0729C3.30815 25.3131 3.30686 23.0712 3.30686 19.9489C3.30686 16.8267 3.30815 14.5847 3.45193 12.8249C3.59413 11.0844 3.8674 9.96211 4.33078 9.05268C5.23145 7.28502 6.6686 5.84787 8.43625 4.9472C9.34569 4.48382 10.468 4.21055 12.2085 4.06835C13.9683 3.92457 16.2102 3.92328 19.3325 3.92328H32.5951C35.7173 3.92328 37.9593 3.92457 39.7191 4.06835C41.4596 4.21055 42.5819 4.48382 43.4913 4.9472C45.259 5.84787 46.6961 7.28502 47.5968 9.05268C48.0602 9.96211 48.3334 11.0844 48.4756 12.8249C48.6194 14.5847 48.6207 16.8267 48.6207 19.9489C48.6207 23.0712 48.6194 25.3131 48.4756 27.0729C48.3334 28.8134 48.0602 29.9357 47.5968 30.8451C46.6961 32.6128 45.259 34.05 43.4913 34.9506C42.5819 35.414 41.4596 35.6873 39.7191 35.8295Z" fill="#5C5C5C"/>
<path d="M17.1221 31.0011C17.1221 32.2219 16.1324 33.2115 14.9116 33.2115C13.6908 33.2115 12.7012 32.2219 12.7012 31.0011C12.7012 29.7803 13.6908 28.7906 14.9116 28.7906C16.1324 28.7906 17.1221 29.7803 17.1221 31.0011Z" fill="#5C5C5C"/>
</svg>
